<?xml version="1.0" standalone="no"?>
<!DOCTYPE svg PUBLIC "-//W3C//DTD SVG 1.1//EN" "http://www.w3.org/Graphics/SVG/1.1/DTD/svg11.dtd" >
<svg xmlns="http://www.w3.org/2000/svg" xmlns:xlink="http://www.w3.org/1999/xlink" version="1.1">
<metadata>
Created by FontForge 20150824 at Sun Mar 20 16:06:38 2016
 By Everything Fonts
Copyright (c) 2005 by Ingo Zimmermann. All rights reserved.
</metadata>
<defs>
<font id="CharpentierRenRedNormal" horiz-adv-x="211" >
  <font-face 
    font-family="CharpentierRenRedNormal"
    font-weight="400"
    font-stretch="normal"
    units-per-em="1000"
    panose-1="2 0 5 3 8 0 0 2 0 3"
    ascent="800"
    descent="-200"
    x-height="393"
    cap-height="569"
    bbox="-105 -273 843 682"
    underline-thickness="40"
    underline-position="-121"
    unicode-range="U+000D-007A"
  />
<missing-glyph 
 />
    <glyph glyph-name=".notdef" 
 />
    <glyph glyph-name=".null" horiz-adv-x="0" 
 />
    <glyph glyph-name=".null" horiz-adv-x="0" 
 />
    <glyph glyph-name="nonmarkingreturn" horiz-adv-x="333" 
 />
    <glyph glyph-name="CR" unicode="&#xd;" 
 />
    <glyph glyph-name="space" unicode=" " 
 />
    <glyph glyph-name="A" unicode="A" horiz-adv-x="566" 
d="M127 23q4 -11 0 -23q-18 0 -53 3t-61 3q-8 0 -37.5 -3t-49.5 -3q-6 13 0 24q67 0 102 70q105 220 163 386l67 113h10l194 -487q33 -82 113 -82q5 -10 0 -24q-23 0 -62 3t-57 3t-63.5 -3t-76.5 -3q-3 12 0 23q69 0 69 41q0 12 -7 30l-44 111h-210l-47 -114q-9 -20 -9 -34
q0 -34 59 -34zM317 247l-87 213l-89 -213h176z" />
    <glyph glyph-name="B" unicode="B" horiz-adv-x="521" 
d="M441 169q0 -41 -12.5 -72.5t-32 -50t-46 -30t-51 -15.5t-51.5 -4q-18 0 -60.5 2.5t-68.5 2.5q-21 0 -61.5 -1t-66.5 -1q-4 15 0 24q27 0 44.5 5.5t25 15.5t10 17.5t3.5 19.5q6 69 6 194q0 135 -7 210q-1 10 -1.5 14.5t-5.5 15t-12.5 15.5t-23.5 10t-38 5q-2 16 1 23
q17 0 61 -1.5t74 -1.5q19 0 58.5 2t60.5 2q31 0 58 -5.5t53 -18t41 -37t15 -59.5q0 -29 -9 -52.5t-21.5 -37.5t-30.5 -25t-30.5 -15t-27 -8t-15.5 -4q1 0 14.5 -1t25.5 -3.5t30.5 -7.5t33 -15t28.5 -24t21.5 -36.5t7.5 -51.5zM335 437q2 57 -33.5 79t-86.5 22q-26 0 -46 -4
q-10 -1 -12 -23q-2 -44 -2 -82l2 -116q28 1 47.5 2.5t46 9t42.5 20t28.5 36t13.5 56.5zM358 169q1 65 -33 91t-87 26q-31 0 -81 -10q-2 -63 -2 -109l3 -128q31 -10 68 -10q24 0 45 6t41.5 20t32.5 43t13 71z" />
    <glyph glyph-name="C" unicode="C" horiz-adv-x="599" 
d="M554 155q-22 -53 -39 -138q-25 -1 -84 -12.5t-109 -11.5q-152 0 -231.5 82t-78.5 215q0 133 76 209t233 76q17 0 41 -3.5t43 -7.5t37 -6.5t28.5 -0.5t12.5 10q5 2 11 2q8 0 11 -2q8 -71 32 -154q1 -4 -1.5 -5.5t-7.5 -1.5l-24 4q-18 69 -73 99t-119 30q-89 0 -147 -60
t-58 -164q0 -65 24 -127.5t77.5 -108.5t124.5 -46q58 0 113.5 32.5t76.5 94.5q8 1 15 1h7t5.5 -1t3.5 -2t0 -3z" />
    <glyph glyph-name="D" unicode="D" horiz-adv-x="663" 
d="M602 303q-1 -84 -27 -146t-71 -96.5t-101.5 -49.5t-123.5 -11q-66 3 -121 3q-41 0 -97.5 -1.5t-69.5 -1.5q-2 10 0 24q29 0 48.5 6t27.5 17.5t10 20t3 20.5q4 75 4 172q0 112 -5 212q-1 13 -3 22t-9 22.5t-25.5 21t-46.5 8.5q-3 13 0 23q18 0 75 -2t95 -2q21 0 68.5 2.5
t76.5 2.5q127 0 210 -65.5t82 -201.5zM515 267q0 133 -66 199t-203 66q-32 0 -46 -1q-22 -1 -26.5 -8.5t-6.5 -37.5q-4 -73 -4 -164q0 -99 7 -271q62 -16 137 -16q46 0 79 8.5t64.5 31.5t48 71.5t16.5 121.5z" />
    <glyph glyph-name="E" unicode="E" horiz-adv-x="485" 
d="M347 212l-26 -4q-3 30 -9 46.5t-11 19.5t-13 4q-44 5 -130 5q-2 -23 -2 -88q0 -87 4 -135q52 -26 124 -26q78 0 118 86q4 2 12.5 1t10.5 -4q-2 -10 -17.5 -54.5t-16.5 -66.5q-99 10 -273 10q-28 0 -60 -3t-67 -3q-4 15 0 24q79 0 83 65q5 76 5 210q0 125 -6 191
q-3 37 -35 49q-18 7 -44 7q-4 14 0 23q31 0 64.5 -3.5t62.5 -3.5q89 0 165 4.5t85 4.5q-1 -17 11 -57t14 -59q-7 -4 -24 -2l-14 37q-8 21 -29 29.5t-69 8.5q-31 0 -44.5 -0.5t-29.5 -4t-21.5 -11t-6.5 -21.5q-2 -52 -2 -82q0 -44 2 -86q51 -9 131 -5q38 3 49 58q7 1 13.5 0
t9.5 -2l3 -2q-2 -22 -8 -49.5t-8.5 -53t-0.5 -57.5z" />
    <glyph glyph-name="F" unicode="F" horiz-adv-x="467" 
d="M158 491q-3 -78 -3 -108q0 -49 2 -81q24 -3 54 -3q56 0 80 3q35 4 50 62q5 1 11 0t9 -2l3 -2q-17 -132 -17 -183q-1 -1 -3 -1.5t-8 -1.5t-11 0q0 82 -45 89q-11 2 -70 2l-53 -2q-3 -34 -3 -81q0 -62 6 -99q8 -59 94 -59q3 -11 0 -24q-27 0 -71.5 3t-66.5 3
q-20 0 -60.5 -3t-64.5 -3q-3 14 0 24q78 0 83 61q6 91 6 201q0 129 -7 205q-5 55 -79 55q-3 14 0 23q24 0 59.5 -3.5t67.5 -3.5q89 0 170.5 4.5t90.5 4.5q0 -28 13 -66t17 -72q-7 -4 -24 -2l-11 38q-16 59 -106 59q-36 0 -51 -0.5t-32.5 -4t-23 -11t-6.5 -21.5z" />
    <glyph glyph-name="G" unicode="G" horiz-adv-x="677" 
d="M551 157q-2 -29 -2 -74q0 -30 15 -34q4 -1 4 -6.5t-2 -10.5l-2 -5q-19 0 -102.5 -17t-148.5 -17q-135 0 -218.5 83.5t-83.5 227.5q0 123 81.5 198t219.5 75q29 0 88 -9.5t77 -9.5q24 0 27 11q6 2 12 2q7 0 10 -2q10 -88 32 -164q1 -4 -1.5 -5.5t-8.5 -1.5l-23 4
q-18 69 -88 105.5t-134 33.5q-85 -4 -140 -57.5t-55 -156.5q0 -47 12.5 -96t37 -94.5t67.5 -74.5t97 -29q40 0 76.5 5.5t53.5 11.5l16 6q2 17 2 42q0 24 -3 54q-3 34 -27 46q-19 11 -54 11q-3 13 1 24q31 0 67 -3.5t56 -3.5q19 0 50 3.5t55 3.5q3 -12 0 -24
q-22 0 -36.5 -5.5t-19.5 -17.5t-6 -15.5t-2 -13.5z" />
    <glyph glyph-name="H" unicode="H" horiz-adv-x="699" 
d="M551 486q-7 -71 -7 -209q0 -115 6 -201q1 -9 2.5 -14.5t8.5 -16t26.5 -16t49.5 -5.5q4 -11 0 -24q-28 0 -65.5 3t-57.5 3q-21 0 -62 -3t-67 -3q-4 12 0 23q77 0 81 55q3 60 3 125l-1 82h-309q-2 -46 -2 -102t3 -107q1 -10 2 -15t8 -16t25 -16.5t46 -5.5q2 -4 2 -10t-1 -9
l-1 -4q-26 0 -65 3t-60 3q-20 0 -61 -3t-64 -3q-3 14 0 24q79 0 84 51q7 119 7 224q0 115 -8 197q-1 8 -2.5 13t-8.5 15.5t-24.5 16t-44.5 5.5q-3 13 0 23q23 0 63 -3t60 -3q21 0 60 3t64 3q3 -11 0 -24q-76 0 -81 -49q-3 -30 -3 -80l2 -91h308v61q0 74 -2 103q-4 56 -80 56
q-4 15 0 24q22 0 64 -4t62 -4q19 0 60 4t61 4q3 -11 0 -24q-26 0 -43.5 -6t-24.5 -15.5t-9.5 -18t-3.5 -16.5v-3z" />
    <glyph glyph-name="I" unicode="I" horiz-adv-x="307" 
d="M161 76q1 -8 2.5 -13.5t8.5 -16t25.5 -16.5t47.5 -6v-24q-25 0 -65.5 3.5t-61.5 3.5q-17 0 -59.5 -3.5t-67.5 -3.5q-3 15 0 24q79 0 84 52q6 85 6 195q0 132 -7 222q-6 52 -80 52q-3 14 0 24q26 0 66 -3.5t61 -3.5q20 0 59 3.5t63 3.5v-23q-76 0 -81 -55q-7 -87 -7 -220
q0 -113 6 -195z" />
    <glyph glyph-name="J" unicode="J" horiz-adv-x="292" 
d="M161 82q0 -92 -52 -141q-32 -30 -78 -46t-80 -19q-27 -3 -41.5 7t-14.5 24t13.5 21.5t36.5 1.5q40 -11 55 -11q39 0 58 31q9 14 14 36t6 38l1 15q4 99 4 213q0 154 -9 240q-2 15 -3.5 21t-8.5 16t-24.5 13.5t-45.5 3.5q-3 12 0 23q26 0 65.5 -2.5t60.5 -2.5
q20 0 59.5 2.5t64.5 2.5v-24q-28 0 -45 -4t-24 -13.5t-9 -16.5t-3 -21q-4 -68 -4 -136q0 -38 2 -124.5t2 -147.5z" />
    <glyph glyph-name="K" unicode="K" horiz-adv-x="604" 
d="M246 24v-24q-36 0 -73 3t-52 3q-13 0 -52 -3t-78 -3q-4 12 0 24q29 0 47.5 5.5t26 15.5t9.5 16t3 14q4 79 4 196q0 148 -5 226q-4 49 -81 49q-4 11 0 23q30 0 68.5 -3t57.5 -3q16 0 53 3t70 3v-24q-77 0 -81 -48q-4 -84 -4 -237q0 -110 3 -182q3 -54 84 -54zM616 24
q8 0 9.5 -6t-1.5 -12l-3 -6q-82 -2 -137 10t-89 49q-43 46 -94 109t-81 103l-29 40q109 102 189 200q6 9 7 16.5t-10.5 12.5t-35.5 5q-4 11 0 24q28 0 54 -3t47 -3q19 0 47.5 3t58.5 3q2 -5 2 -11t-1 -9l-1 -3q-76 0 -126 -47q-30 -28 -68.5 -67.5t-61.5 -64.5l-24 -25
q114 -156 211 -262q16 -18 55.5 -37t81.5 -19z" />
    <glyph glyph-name="L" unicode="L" horiz-adv-x="471" 
d="M163 486q-6 -87 -6 -188l6 -241q53 -17 122 -17q50 0 73.5 22.5t49.5 97.5q4 9 11 8t13 -6l6 -5q-4 -32 -23 -82.5t-22 -77.5q-90 8 -234 8h-39q-26 0 -59 -2.5t-70 -2.5q-3 14 0 24q48 1 64.5 17.5t18.5 52.5q5 66 5 195q0 113 -4 181q-2 37 -17.5 56t-58.5 19
q-4 13 0 24q25 0 63 -2.5t57 -2.5q29 0 71 2.5t68 2.5v-23q-91 0 -95 -60z" />
    <glyph glyph-name="M" unicode="M" horiz-adv-x="822" 
d="M645 586q19 -278 47 -489q4 -35 22.5 -54t65.5 -19q3 -10 0 -24q-29 0 -72.5 3t-50.5 3q-8 0 -56 -3t-79 -3q-4 11 0 20q50 0 67.5 22t18.5 57q1 58 -6 134.5t-14 124.5l-8 47q-24 -49 -71.5 -147t-79 -160.5t-67.5 -127.5h-6q-37 65 -103.5 204t-91.5 186q-14 26 -24 23
q-24 -183 -29 -302q-1 -27 13.5 -43t61.5 -16q2 -14 0 -22q-29 0 -58.5 3t-45.5 3q-14 0 -42.5 -3t-56.5 -3q-4 10 0 24q68 0 77 68q14 104 27.5 227.5t19.5 194.5l6 72h20q44 -76 117.5 -224.5t95.5 -189.5q19 -36 26.5 -46t16.5 -10q24 40 113.5 224.5t126.5 245.5
q11 3 19 0z" />
    <glyph glyph-name="N" unicode="N" horiz-adv-x="653" 
d="M542 485q-1 -24 -1 -92q0 -55 1.5 -177.5t1.5 -166.5q0 -49 -2 -75h-17q-35 30 -185.5 210.5t-211.5 241.5q-11 11 -15 7v-118q0 -161 3 -232q3 -60 80 -60v-23q-23 0 -57.5 2.5t-51.5 2.5q-16 0 -50 -2.5t-57 -2.5q-3 15 0 24q80 0 83 58q2 37 2 143q0 53 -1 156.5
t-1 139.5q0 52 2 80q4 2 8.5 2t7.5 -1l3 -1q38 -34 189.5 -216.5t200.5 -232.5q11 -11 17 -10q0 3 0.5 50t0.5 85q0 107 -3 208q-1 31 -17 45.5t-61 14.5q-4 13 0 24q25 0 57.5 -3t47.5 -3q20 -1 52.5 2.5t54.5 3.5v-24q-47 -1 -63.5 -16t-17.5 -44z" />
    <glyph glyph-name="O" unicode="O" horiz-adv-x="691" 
d="M319 575q130 0 216 -79t86 -218q0 -91 -44.5 -158t-113.5 -98t-152 -31q-124 0 -212 78.5t-88 209.5t85 213.5t223 82.5zM522 268q0 45 -11.5 91.5t-35 88.5t-64.5 68.5t-94 26.5q-91 0 -149 -72t-58 -171q0 -62 22 -122.5t71.5 -105.5t115.5 -45q95 0 149 69.5t54 171.5
z" />
    <glyph glyph-name="P" unicode="P" horiz-adv-x="509" 
d="M459 437q0 -47 -17 -81t-40.5 -51.5t-61.5 -27.5t-66.5 -12t-68.5 -2q-4 7 2.5 15t14.5 12l9 4q30 0 50 3.5t44 15t36.5 40.5t12.5 74q0 43 -22.5 69t-51 34.5t-64.5 8.5q-35 0 -56 -3q-18 -3 -18 -28q-4 -101 -4 -218q0 -141 5 -214q2 -21 24 -37.5t63 -16.5v-22
q-27 0 -67 3t-60 3q-21 0 -62.5 -3t-69.5 -3q-3 14 0 24q41 0 62.5 14.5t23.5 37.5q5 93 5 202q0 139 -6 214q-3 54 -81 54q-3 12 0 23q26 0 66 -3t62 -3q27 0 79 3t70 3q27 1 48.5 -0.5t49 -9t45.5 -21t31 -39.5t13 -62z" />
    <glyph glyph-name="Q" unicode="Q" horiz-adv-x="682" 
d="M328 575q127 0 208 -84.5t81 -220.5q0 -105 -64.5 -176t-143.5 -88q48 -60 142.5 -101t183.5 -49q26 -2 41 -0.5t21 4.5l6 2q4 -16 -18 -24.5t-64 -8.5q-98 0 -219 42.5t-192 121.5q-120 -1 -209.5 83.5t-89.5 211.5q1 132 88.5 209.5t228.5 77.5zM523 265q0 45 -12 91.5
t-35 89.5t-64 70.5t-93 27.5q-92 0 -150.5 -72t-58.5 -171q0 -46 14 -95t40.5 -92.5t71.5 -69.5t99 -21q87 8 137.5 77.5t50.5 164.5z" />
    <glyph glyph-name="R" unicode="R" horiz-adv-x="572" 
d="M405 429q0 -32 -13 -58t-31 -40.5t-36.5 -24.5t-30.5 -14l-13 -3q54 -82 153 -189q23 -25 39 -38.5t45.5 -25.5t64.5 -12q8 0 10 -4t-0.5 -8t-6.5 -8l-3 -4q-14 -1 -40 -1q-74 0 -116.5 23t-101.5 92l-143 174q0 5 2 8q20 -1 46 3q92 13 92 125q0 114 -113 114
q-13 0 -19 -0.5t-16 -3t-14.5 -9t-5.5 -17.5q-5 -100 -5 -221q0 -105 6 -219q5 -44 79 -44q3 -12 0 -24q-27 0 -65.5 3t-53.5 3q-17 0 -58 -3t-66 -3q-3 12 0 24q38 0 57.5 14t21.5 34q5 85 5 189q0 128 -6 240q-3 45 -75 45q-3 12 0 23q27 0 62.5 -3t57.5 -3q27 0 71.5 3
t68.5 3q25 1 48 -3.5t48.5 -18t40.5 -44t14 -74.5z" />
    <glyph glyph-name="S" unicode="S" horiz-adv-x="482" 
d="M394 188q0 -86 -59.5 -140.5t-153.5 -54.5q-27 0 -62.5 5.5t-57.5 11.5l-22 5q-3 28 -19.5 71.5t-19.5 72.5q6 4 13.5 5.5t12.5 0.5l4 -1q39 -128 164 -128q48 0 82 34t34 83q0 40 -30.5 64t-73.5 36t-86.5 26.5t-74 48.5t-30.5 90q0 43 18.5 75.5t48 49t59 24.5t58.5 8
q28 0 60.5 -7.5t37.5 -7.5q13 0 15 10q3 2 8.5 2h9.5l4 -1q0 -37 13.5 -87t15.5 -76q-2 -1 -5 -1.5t-11 -2t-14 1.5q-20 68 -49.5 98t-87.5 32q-44 2 -75 -21.5t-31 -70.5q0 -42 31.5 -68.5t76 -40t89 -28t76 -44t31.5 -75.5z" />
    <glyph glyph-name="T" unicode="T" horiz-adv-x="444" 
d="M444 405q-1 -1 -3 -1.5t-9 -1t-12 1.5q-14 70 -38.5 96t-95.5 26l-43 -2q-4 -109 -4 -242q0 -116 4 -204q1 -25 23 -41.5t66 -16.5v-20q-32 0 -71.5 3t-57.5 3q-20 0 -60 -3t-70 -3v20q85 0 87 55q4 89 4 206l-4 243q-18 2 -44 2q-59 0 -84.5 -25t-45.5 -97q-17 -4 -27 1
q2 12 9 42t12 62.5t5 61.5h18q4 -9 198 -9q183 0 193 9h20q1 -19 14 -75t16 -91z" />
    <glyph glyph-name="U" unicode="U" horiz-adv-x="628" 
d="M507 246q-1 -35 -5.5 -66.5t-18.5 -67.5t-36.5 -61.5t-62 -43t-91.5 -17.5q-229 0 -229 249v257q0 10 -4.5 19t-24.5 19.5t-55 10.5v24q26 0 61.5 -3t63.5 -3q27 0 66 3t61 3q3 -10 0 -23q-78 0 -85 -51q-5 -51 -5 -132q0 -77 4 -143q4 -88 49 -134t116 -46
q140 0 149 181q2 54 2 98q0 99 -5 176q-4 50 -99 50q-3 12 0 24q24 0 65.5 -2.5t60.5 -2.5q22 0 56 2.5t58 2.5v-23q-89 0 -91 -51q-1 -25 -1 -78q0 -27 1 -88.5t0 -82.5z" />
    <glyph glyph-name="V" unicode="V" horiz-adv-x="525" 
d="M297 88q-9 -26 -22 -54.5t-21 -44.5l-9 -16h-15q-9 20 -90.5 223.5t-123.5 290.5q-29 58 -102 58q-3 12 0 24q19 0 54 -2t53 -2q24 0 85.5 6t76.5 6v-25q-44 0 -63.5 -13t-19.5 -31q0 -7 2 -13q17 -46 65.5 -156t64.5 -158q17 -48 31 -50q11 31 68 162t80 198q3 7 3 18
q-1 20 -24.5 31.5t-61.5 11.5q-4 13 0 25q17 0 72.5 -6t78.5 -6q18 0 46.5 2t41.5 2v-24q-82 0 -101 -55q-24 -66 -87 -208t-82 -194z" />
    <glyph glyph-name="W" unicode="W" horiz-adv-x="811" 
d="M753 490q-25 -62 -91 -267.5t-83 -246.5h-18q-26 53 -93.5 243t-75.5 211q-5 13 -11 13q-14 -31 -84 -222t-96 -244q-10 -2 -20 0q-17 42 -80 243.5t-90 270.5q-19 54 -97 54q-3 12 0 24q18 0 55.5 -3t63.5 -3q19 0 72 7t77 7v-24q-44 0 -65.5 -18.5t-15.5 -44.5
q16 -69 49.5 -176t52.5 -153q9 -18 13 -18q20 47 89.5 232t88.5 223h12q15 -31 74 -194t82 -219q4 -9 5.5 -12.5t4.5 -8.5t5.5 -6t5.5 -1q79 210 109 338q5 26 -13 42t-58 16q-4 12 0 24q15 0 64.5 -7t74.5 -7q22 0 47 3t34 3q2 -5 2 -10.5t-1 -8.5l-1 -4q-64 0 -88 -56z
" />
    <glyph glyph-name="X" unicode="X" horiz-adv-x="609" 
d="M466 498l-158 -191l178 -232q39 -51 99 -51v-24q-28 0 -68.5 2.5t-56.5 2.5q-9 0 -60 -2.5t-83 -2.5q-4 11 0 22q48 0 62 15.5t1 36.5q-24 40 -55 85t-50 71l-19 25q-76 -89 -142 -188q-5 -10 -5 -19.5t16.5 -16.5t46.5 -7v-24q-29 0 -66.5 2.5t-48.5 2.5
q-8 0 -45.5 -2.5t-64.5 -2.5q-3 14 0 24q63 0 103 47l177 213l-159 209q-21 28 -43 40.5t-56 12.5v23q16 0 52.5 -3t60.5 -3q36 0 85 8t68 8q4 -12 0 -24q-44 0 -63 -17t-8 -37q21 -36 49 -76t46 -63l18 -22q79 89 124 161q4 10 6 22t-13 22t-46 10q-3 12 0 24q23 0 64.5 -8
t68.5 -8q22 0 48 3t39 3q3 -12 0 -24q-37 0 -59 -11.5t-43 -35.5z" />
    <glyph glyph-name="Y" unicode="Y" horiz-adv-x="486" 
d="M301 336q-34 -61 -44 -91t-10 -84t4 -86q6 -53 90 -53v-22q-26 0 -67 3.5t-62 3.5q-20 0 -59 -3.5t-69 -3.5q-3 11 0 22q83 0 89 52q4 39 4 84q0 42 -12 75.5t-45 94.5q-23 43 -119 175q-15 20 -36 31t-62 11q-4 12 0 24q16 0 53 -2.5t61 -2.5q21 0 72 7.5t82 7.5
q2 -5 2 -11t-1 -10l-1 -3q-49 0 -65 -18.5t-7 -38.5q9 -18 52.5 -86.5t73.5 -124.5q31 63 76 129.5t55 86.5q3 9 2 21t-18 21.5t-46 9.5q-4 12 0 24q29 0 72 -7.5t60 -7.5q20 0 43.5 2.5t36.5 2.5v-24q-57 0 -94 -50q-84 -111 -111 -159z" />
    <glyph glyph-name="Z" unicode="Z" horiz-adv-x="523" 
d="M463 181q-4 -48 -17.5 -107t-15.5 -79q-34 11 -194 11q-56 0 -131 -3t-111 -3l-5 16q17 35 139.5 205.5t194.5 292.5q-31 4 -123 4q-88 0 -115.5 -18.5t-53.5 -101.5q-7 -2 -12.5 -1.5t-8.5 1.5l-3 1l23 171h21q36 -8 95 -8q90 0 163 2t101 4l28 2l7 -13
q-19 -39 -135.5 -201t-199.5 -299q57 -2 126 -2t103 2q32 3 55.5 28.5t42.5 98.5q15 4 26 -3z" />
    <glyph glyph-name="a" unicode="a" horiz-adv-x="437" 
d="M234 186l-84 -24q-64 -18 -64 -77q0 -51 44 -51q38 0 71 27t33 66v59zM296 -5q-36 0 -59 54q-53 -54 -133 -54q-49 0 -71 18t-22 61q0 83 105 111l118 32v87q0 32 -28 54q-16 14 -35 14q-8 0 -25 -7q-10 -4 -17.5 -8t-12 -9.5t-7 -8.5t-3.5 -11.5t-1 -11.5v-15v-17
q0 -4 -20.5 -9t-38 -6.5t-20.5 2.5q0 26 2 41t14 31.5t35 25.5l96 39q43 1 65 -5.5t40 -26.5q20 -22 27 -40.5t6 -53.5l-3 -150q-1 -44 7.5 -59.5t34.5 -32.5l46 20q4 -3 6 -8.5t2 -9.5v-4q-78 -43 -108 -43z" />
    <glyph glyph-name="b" unicode="b" horiz-adv-x="488" 
d="M350 177q0 43 -11.5 82.5t-42 69.5t-76.5 27q-20 -1 -93 -51l-3 -123q3 -107 3 -112q59 -48 115 -48q45 0 75 33q33 36 33 122zM428 219q0 -115 -53.5 -172.5t-139.5 -55.5q-38 1 -68 6.5t-64 15.5t-58 15q7 88 7 258q0 162 -7 278q-4 49 -70 49q-3 11 0 21
q109 22 147 47l9 -6q-1 -10 -2 -46l-3 -282q19 10 41.5 25t37.5 24t24 10q89 10 144 -39t55 -148z" />
    <glyph glyph-name="c" unicode="c" horiz-adv-x="405" 
d="M328 380q7 -23 14 -63.5t10 -53.5q-10 -4 -25 -4q-16 52 -48.5 81t-72.5 29q-54 0 -83.5 -41.5t-29.5 -100.5q0 -67 37 -127t103 -60q45 0 114 24q3 -4 5 -9.5t2 -8.5l1 -4q-29 -16 -61 -28.5t-49 -17.5l-17 -4q-97 0 -157 53.5t-60 159.5q0 92 57.5 146.5t134.5 54.5
q27 0 47.5 -4t42 -11.5t35.5 -10.5z" />
    <glyph glyph-name="d" unicode="d" horiz-adv-x="519" 
d="M91 196q0 -60 32 -108.5t92 -48.5q37 0 97 33q2 94 2 138q0 159 -97 160q-59 0 -92.5 -54t-33.5 -120zM322 37l-121 -44q-190 0 -190 183q0 90 63 160.5t157 70.5q43 0 80 -23q3 41 3 95q0 42 -3 87q-3 49 -76 49q-3 11 0 21q120 26 149 46l10 -7q-2 -18 -3 -36
q-7 -131 -7 -305q0 -155 7 -249q1 -31 34 -49l55 17q3 -3 5.5 -8.5t2.5 -9.5l1 -4q-89 -37 -116 -37q-26 0 -51 43z" />
    <glyph glyph-name="e" unicode="e" horiz-adv-x="432" 
d="M91 258h46q48 0 85.5 7t51.5 13l14 7q-1 4 -3.5 10t-10.5 21.5t-17.5 27.5t-25.5 21.5t-34 9.5q-47 0 -73 -33t-33 -84zM221 -12q-90 -2 -150 59.5t-60 155.5t49.5 149t140.5 55q80 0 123 -38.5t46 -73.5h35l3 -9q-56 -39 -131.5 -52.5t-183.5 -13.5q0 -73 44 -123.5
t110 -60.5q32 6 108 40q5 -3 8.5 -10.5t4.5 -13.5l1 -6q-31 -17 -68 -31.5t-59 -20.5z" />
    <glyph glyph-name="f" unicode="f" horiz-adv-x="313" 
d="M401 635q12 -7 12 -15q0 -10 -16.5 -19.5t-33.5 -14.5l-17 -4q-3 2 -21 15t-32.5 21.5t-37.5 17t-43 8.5q-26 0 -45 -24q-28 -35 -28 -67q0 -23 0.5 -50t1.5 -60t1 -52h146l-5 -38h-141q-1 -46 -1 -107q0 -84 3 -170q2 -51 91 -52q2 -5 2 -11t-1 -9l-1 -4q-34 0 -74 3
t-56 3q-15 0 -50 -3t-62 -3q-4 12 0 24q36 1 53.5 15t19.5 35q4 55 4 127l-4 152h-77l10 38h65l-1 129q0 39 50 95q40 45 56 53.5t64 8.5q102 0 168 -42z" />
    <glyph glyph-name="g" unicode="g" horiz-adv-x="468" 
d="M294 275q-4 47 -29 74.5t-61 27.5q-45 0 -64 -37t-16 -88q3 -41 30 -70t63 -29q42 0 61.5 37.5t15.5 84.5zM425 -49q0 -103 -70.5 -163.5t-176.5 -60.5q-69 0 -118 27.5t-49 89.5q0 12 5 22.5t16.5 19.5t20.5 15t26.5 16t26.5 15q4 0 8 -3.5t6 -6.5l1 -4q-45 -32 -45 -61
q-1 -49 35.5 -74t89.5 -25q62 0 106.5 41t44.5 106q0 32 -23 44.5t-79 12.5q-13 0 -42.5 -2t-47.5 -2q-52 0 -93.5 19.5t-41.5 60.5q0 33 44 49l95 35l-1 6q-5 1 -13 2.5t-28.5 10.5t-36 22.5t-28.5 41t-13 63.5q0 63 52 101.5t122 37.5q17 0 34 -4t26 -8l9 -4h146l-5 -40
l-100 4v-5q16 -9 30.5 -32t14.5 -56q0 -15 -2.5 -28.5t-6 -23.5t-10.5 -20t-12.5 -16.5t-15.5 -14t-15.5 -11t-16.5 -9t-15.5 -7.5t-15.5 -6t-13 -5l-158 -63q0 -18 32.5 -25.5t67.5 -7.5q12 0 37.5 1t40.5 1q85 0 120 -17.5t35 -58.5z" />
    <glyph glyph-name="h" unicode="h" horiz-adv-x="530" 
d="M62 554q-4 60 -71 61q-4 11 0 21q2 1 29.5 6t49.5 11q18 5 31 11.5t20.5 11.5t10.5 6l10 -7q-3 -18 -4 -39q-2 -68 -2 -121l2 -171q24 11 51 27t43 27l15 10q17 3 33 3q57 0 90.5 -32.5t34.5 -82.5q0 -6 -0.5 -34t-0.5 -59q0 -100 2 -129q2 -23 17 -36t58 -14v-24
q-26 0 -61 3t-51 3t-46 -3t-57 -3q-3 13 0 24q57 0 63 51q4 35 4 96v64q-1 65 -17.5 97t-53.5 32q-14 0 -29 -4q-26 -7 -57.5 -36t-35.5 -65q-3 -29 -3 -79q0 -58 3 -104q2 -24 15 -38t50 -14q3 -13 0 -24q-29 0 -57 3t-44 3t-45 -3t-57 -3v24q58 0 60 50q6 94 6 253
q0 149 -6 227z" />
    <glyph glyph-name="i" unicode="i" horiz-adv-x="242" 
d="M-1 366q41 7 77 22q4 2 45 27l13 -4q-3 -26 -4 -46q-4 -102 -4 -169q0 -70 3 -120q3 -52 63 -52v-24q-23 0 -51 3t-47 3q-18 0 -48 -3t-55 -3q-4 13 0 24q60 0 64 53q4 64 4 96q0 47 -5 120q-2 21 -15 36.5t-40 15.5q-3 11 0 21zM40 526q0 7 22 33t29 26t28.5 -22.5
t21.5 -29.5q0 -8 -21.5 -33t-28.5 -25t-29 22.5t-22 28.5z" />
    <glyph glyph-name="j" unicode="j" horiz-adv-x="242" 
d="M64 293q-2 21 -15 36.5t-40 15.5q-3 11 0 21q41 7 77 22q4 2 45 27l13 -4q-3 -26 -4 -46q-3 -59 -3 -147l3 -218q0 -100 -26 -145q-35 -65 -129 -86q-2 1 -4.5 2t-8 4.5t-5 6t5.5 5.5q1 0 11.5 3.5t16 6t14.5 7.5t16 12q16 16 25 51t10.5 58.5t2.5 74.5q0 9 0.5 40.5
t0.5 53.5q0 111 -6 199zM44 526q0 7 22 33t29 26t29 -22.5t22 -29.5q0 -8 -22 -33t-29 -25t-29 22.5t-22 28.5z" />
    <glyph glyph-name="k" unicode="k" horiz-adv-x="533" 
d="M141 630q-4 -100 -4 -246l1 -159q88 51 142 111q6 6 6 14q0 13 -40 13q-3 14 0 25q22 1 54 -2t48 -3q14 0 45 2.5t57 3.5q2 -5 2 -11.5t-1 -9.5l-1 -4q-67 -2 -103 -27q-33 -23 -65 -47l-48 -36l-15 -13q97 -106 172 -181q36 -36 96 -36v-24q-27 0 -58 3t-47 3
q-26 1 -59 -2.5t-57 -3.5q-3 13 0 23q51 0 27 34q-30 44 -68.5 84t-62.5 58l-24 18q-1 -21 -1 -50q0 -56 4 -100q3 -43 63 -43v-24q-23 0 -51.5 3t-49.5 3t-49 -3t-53 -3q-3 14 0 24q57 0 60 41q6 81 6 218q0 175 -6 279q-4 52 -70 53q-4 11 0 21q2 1 29 6t49 11
q18 5 31.5 11.5t22.5 11.5t12 6l10 -7q-3 -24 -4 -45z" />
    <glyph glyph-name="l" unicode="l" horiz-adv-x="262" 
d="M141 630q-6 -96 -6 -268q0 -186 7 -291q4 -47 80 -47v-24q-25 0 -60.5 3t-55.5 3q-21 0 -55 -3t-59 -3q-3 14 0 24q66 0 69 45q6 88 6 248q0 149 -6 245q-4 52 -70 53q-4 11 0 21q2 1 29 6t49 11q18 5 31.5 11.5t22.5 11.5t12 6l10 -7q-3 -24 -4 -45z" />
    <glyph glyph-name="m" unicode="m" horiz-adv-x="768" 
d="M647 279q0 -13 -1 -55.5t-1 -71.5q0 -56 2 -87q2 -41 71 -41v-24q-25 0 -59 3t-49 3q-17 0 -47.5 -3t-52.5 -3q-4 13 0 24q54 0 59 41q5 48 5 96q0 41 -3 84q-3 72 -28.5 97.5t-55.5 14.5q-93 -35 -101 -125q-3 -36 -3 -93q0 -39 3 -75q3 -40 61 -40v-24q-22 0 -50.5 3
t-44.5 3q-17 0 -47.5 -3t-52.5 -3q-3 13 0 24q54 0 58 41q4 51 4 96q0 30 -2 84q-3 74 -32 100t-61 12q-86 -37 -89 -125q-1 -35 -1 -66q0 -69 3 -101q5 -41 58 -41v-24q-23 0 -51 3t-44 3q-17 0 -50.5 -3t-52.5 -3q-3 13 0 24q62 0 64 39q3 43 3 109q0 58 -3 121
q-2 51 -65 52q-4 11 0 21q2 1 23.5 6t40.5 12q17 7 28.5 13t18 11t7.5 6l12 -5l3 -70q24 11 54 27.5t48 27.5l18 11q43 6 72.5 -7.5t40 -28.5t19.5 -38q27 12 60.5 30.5t53.5 31.5l20 13q137 15 137 -127z" />
    <glyph glyph-name="n" unicode="n" horiz-adv-x="530" 
d="M401 280q0 -9 -0.5 -42t-0.5 -56q0 -52 3 -115q3 -43 77 -43v-24q-27 0 -61 3t-51 3t-48 -3t-57 -3q-3 14 0 24q58 0 61 41q3 33 3 95q0 50 -1 69q-6 135 -66 135q-15 0 -36 -8q-90 -39 -93 -113q-2 -36 -2 -79q0 -51 4 -98q5 -41 62 -41v-25q-25 0 -54 3t-46 3t-48.5 -3
t-54.5 -3q-3 13 0 24q62 0 64 42q3 42 3 99q0 76 -3 128q-2 51 -65 52q-4 11 0 21q2 1 23.5 6t40.5 12q17 7 28.5 13t18 11t7.5 6l12 -5l3 -71q22 11 51 27t47 27l17 11q20 4 43 4q56 0 87.5 -31.5t31.5 -95.5z" />
    <glyph glyph-name="o" unicode="o" horiz-adv-x="499" 
d="M439 198q0 -91 -65 -148.5t-163 -57.5q-89 1 -144.5 58t-55.5 151q0 87 63 146t157 59q90 1 149 -57.5t59 -150.5zM355 185q0 41 -14 83t-47 75t-76 33q-57 0 -90 -49t-33 -112q0 -66 40 -128t106 -62q55 0 84.5 47t29.5 113z" />
    <glyph glyph-name="p" unicode="p" horiz-adv-x="497" 
d="M138 65q63 -40 115 -40q109 0 109 155q0 40 -11.5 80t-43.5 70.5t-77 25.5q-19 -2 -49.5 -20.5t-46.5 -31.5q-1 -25 -1 -78q0 -86 5 -161zM437 204q0 -94 -51 -153t-133 -59q-38 0 -116 14q-3 -30 -3 -78q0 -46 3 -93q1 -23 22 -38t63 -15v-24q-22 0 -59.5 3.5t-60.5 3.5
q-25 0 -54 -3.5t-51 -3.5q-3 13 0 24q54 1 60 53q6 85 6 213q0 135 -7 245q-1 14 -5 24t-19 19t-41 9q-4 11 0 21q2 1 23.5 6t40.5 12q17 7 28.5 13t18 11t7.5 6l12 -5l8 -67l115 63q16 3 32 3q72 0 116.5 -53t44.5 -151z" />
    <glyph glyph-name="q" unicode="q" horiz-adv-x="503" 
d="M312 195q0 177 -90 177q-55 0 -92.5 -42.5t-37.5 -131.5q0 -44 11 -76.5t25.5 -48.5t34 -26t32 -12t23.5 -2q39 0 90 39q4 83 4 123zM390 -160q1 -16 4.5 -26.5t18.5 -20.5t40 -10q1 -4 1 -11l-1 -14q-20 0 -49 3.5t-48 3.5q-21 0 -55.5 -3.5t-62.5 -3.5q-1 6 -1 14t1 12
q67 0 72 55q3 42 3 95l-3 96q-57 -23 -110 -39q-189 0 -189 188q0 93 62 159.5t146 66.5q52 0 93 -28q63 34 129 34q3 0 3 -11l-1 -14q-47 0 -51 -52q-9 -94 -9 -250q0 -144 7 -244z" />
    <glyph glyph-name="r" unicode="r" horiz-adv-x="328" 
d="M273 302q-4 0 -23.5 23.5t-37.5 23.5q-27 0 -47 -29q-24 -34 -32.5 -64.5t-8.5 -74.5q0 -20 6 -116q3 -41 82 -41v-24q-26 0 -62 3t-57 3q-20 0 -48 -3t-53 -3q-3 13 0 24q58 0 63 41q6 53 6 106q0 44 -5 122q-2 51 -65 52q-4 11 0 21q3 1 19 6t35 12q17 7 28.5 13t18 11
t7.5 6l12 -5l11 -99l63 81q20 13 65 13q20 0 45.5 -5.5t25.5 -19.5q0 -10 -19.5 -43.5t-28.5 -33.5z" />
    <glyph glyph-name="s" unicode="s" horiz-adv-x="354" 
d="M261 383q-1 -19 7 -54.5t8 -52.5q-4 -2 -10 -2.5t-10 0.5h-4q-11 46 -35.5 75.5t-61.5 29.5q-26 0 -43.5 -13.5t-18.5 -40.5q-1 -31 19 -50t50 -29.5t60 -21.5t51 -32.5t21 -54.5q0 -152 -168 -146q-22 1 -47 7t-39 12l-14 5q-2 17 -8 51t-7 57l23 2q25 -95 101 -103
q38 -4 63.5 16t25.5 61q0 29 -20 46t-48.5 25.5t-57.5 19.5t-49 37t-20 67q0 60 32.5 87.5t85.5 27.5q35 0 70.5 -14t43.5 -12z" />
    <glyph glyph-name="t" unicode="t" horiz-adv-x="350" 
d="M293 353h-142l-3 -148l1 -82q0 -58 46 -87q72 14 85 14q11 0 11 -12l-2 -9l-119 -35q-7 -1 -18 -1q-26 0 -51 25q-30 29 -30 85q0 17 1.5 74.5t1.5 111.5v64h-71q-6 19 0 22q30 14 58.5 37.5t46.5 43.5t51 60q4 0 7.5 -1.5t5.5 -3.5l2 -2q-21 -64 -23 -118h149z" />
    <glyph glyph-name="u" unicode="u" horiz-adv-x="499" 
d="M383 357q-5 -62 -5 -148q0 -81 5 -122q7 -63 64 -63v-24q-20 0 -44 2t-38 2l-45 -4l-9 73l-91 -72q-30 -8 -57 -8q-52 0 -83 37.5t-31 113.5q0 16 0.5 50t0.5 51q0 33 -1 48q-3 55 -58 55q-3 9 0 18q2 1 11.5 3t24.5 6t29 8q20 6 34 12.5t22 12.5l7 5l11 -6
q-5 -32 -6 -50q-2 -32 -2 -95t2 -95q6 -127 67 -127q38 0 74.5 41t41.5 88q3 27 3 72q0 16 -2 52q-3 55 -48 55q-3 9 0 18q33 8 61 19q16 6 28.5 12t20.5 11l8 5l11 -6q-5 -32 -6 -50z" />
    <glyph glyph-name="v" unicode="v" horiz-adv-x="438" 
d="M-42 388q25 0 53.5 -1t42.5 -1q23 0 58.5 3.5t59.5 3.5v-23q-33 0 -43 -17t-5 -35q14 -45 38.5 -99.5t42.5 -86.5l18 -32q65 123 102 222q1 8 3 18.5t-11.5 20t-40.5 9.5q-3 14 0 23q27 0 58.5 -4t50.5 -4q14 0 28.5 1.5t33.5 1.5q3 -13 0 -23q-53 0 -75 -44l-150 -331
h-39q-89 212 -143 319q-8 16 -15 26t-25 20t-42 10q-3 13 0 23z" />
    <glyph glyph-name="w" unicode="w" horiz-adv-x="636" 
d="M277 387h60q11 -51 51 -167.5t50 -131.5q60 144 88 238q6 17 -5 30.5t-45 13.5q-3 13 0 23q21 0 51.5 -3t49.5 -3t34 0.5t34 0.5v-23q-55 0 -70 -34q-21 -46 -52.5 -127t-55.5 -142t-30 -72h-35q-29 61 -67 171t-43 121q-8 -15 -48 -133.5t-60 -158.5h-30
q-6 12 -51.5 144.5t-70.5 189.5q-18 41 -74 41q-3 12 0 23q19 0 44 -1.5t48 -1.5q27 0 61.5 4t51.5 4v-23q-29 0 -41 -12.5t-8 -28.5q9 -36 27.5 -93t32.5 -96l14 -39q9 15 44 124.5t45 161.5z" />
    <glyph glyph-name="x" unicode="x" horiz-adv-x="473" 
d="M438 24v-24q-24 0 -57 3t-49 3q-22 0 -55 -3t-59 -3q-3 14 0 24q31 0 41.5 12t3.5 26q-8 18 -26 45t-31 45l-14 18q-60 -68 -91 -112q-6 -8 -7 -14.5t8 -13t32 -6.5v-24q-21 0 -47 3t-43 3q-10 0 -32 -3t-43 -3q-3 14 0 24q43 0 81 40l114 130q-54 75 -103 136
q-28 35 -76 35q-3 13 0 23q25 0 49 -1.5t44 -1.5t56.5 4t63.5 4v-23q-29 0 -40 -12t-6 -25q7 -17 22 -40t27 -37l12 -14q50 54 73 88q27 40 -21 40q-2 12 0 23q18 0 44 -3.5t43 -3.5q16 0 31.5 1t33.5 1v-23q-48 0 -83 -37l-93 -110q66 -92 116 -151q37 -43 81 -43z" />
    <glyph glyph-name="y" unicode="y" horiz-adv-x="462" 
d="M-38 388q19 0 52.5 -0.5t53.5 -0.5t55 3t65 3v-22q-58 0 -58 -43q0 -17 4 -34t15 -41t20.5 -43t31 -59t36.5 -70q21 58 47.5 118.5t36.5 88.5t10 48q0 35 -48 35q-3 12 0 22q22 0 60 -3t54 -3q21 0 39 0.5t35 0.5v-23q-51 0 -83 -55q-48 -83 -114 -267t-122 -285h-171
q-3 7 -3 14t2 10l1 4q64 0 96.5 8.5t50.5 34.5q12 17 30 58t30 73l12 33q-77 135 -155 308q-29 64 -83 64q-4 13 0 23z" />
    <glyph glyph-name="z" unicode="z" horiz-adv-x="402" 
d="M39 393q22 -3 44 -4q45 -2 137 -2l113 1v-23q-133 -142 -237 -307q19 -4 101 -4q54 0 75.5 14.5t47.5 80.5l22 -4q-19 -66 -25 -149q-15 3 -49 5q-56 3 -113 3l-153 -4q-4 11 0 24q134 150 231 306q-23 4 -67 4q-62 0 -81.5 -14.5t-43.5 -81.5q-14 -1 -23 5q16 64 21 150
z" />
    </font>
</defs>
</svg>
